<svg width="403" height="111" viewBox="0 0 403 111" fill="none" xmlns="http://www.w3.org/2000/svg">
<path fill-rule="evenodd" clip-rule="evenodd" d="M175.621 38.3156V72.252C175.621 93.4134 158.549 110.568 137.49 110.568H38.1313C17.0717 110.568 0 93.4129 0 72.252V38.3156C0 17.1542 17.0722 0 38.1313 0H137.49C158.55 0 175.621 17.1547 175.621 38.3156ZM10.8949 72.2525C10.8949 87.3674 23.0891 99.6205 38.1313 99.6205H137.49C152.532 99.6205 164.726 87.3674 164.726 72.2525V38.3161C164.726 23.2012 152.532 10.9481 137.49 10.9481H38.1313C23.0891 10.9481 10.8949 23.2012 10.8949 38.3161V72.2525ZM197.771 35.4237C195.147 40.7557 193.835 46.8283 193.835 53.6415V54.4667C193.835 65.3846 196.776 74.0174 202.658 80.3651C208.583 86.7128 216.496 89.8866 226.398 89.8866C236.301 89.8866 244.193 86.7128 250.075 80.3651C255.957 73.9751 258.898 65.5116 258.898 54.9745L258.771 50.2772C258.094 40.5441 254.815 32.8423 248.933 27.1717C243.093 21.5012 235.539 18.6659 226.271 18.6659C219.755 18.6659 214.021 20.1258 209.069 23.0458C204.16 25.9657 200.394 30.0917 197.771 35.4237ZM215.861 69.9549C213.407 66.4849 212.18 61.4914 212.18 54.9745C212.18 47.6535 213.407 42.258 215.861 38.7879C218.316 35.2756 221.786 33.5194 226.271 33.5194C230.799 33.5194 234.312 35.2756 236.809 38.7879C239.305 42.3003 240.554 47.2515 240.554 53.6415C240.554 61.1317 239.305 66.5907 236.809 70.0184C234.312 73.4038 230.842 75.0965 226.398 75.0965C221.828 75.0965 218.316 73.3827 215.861 69.9549ZM287.653 27.87L287.082 19.9354H269.816V88.6171H288.161V40.1844C290.743 35.7834 294.615 33.5829 299.777 33.5829C303.713 33.5829 306.527 34.4715 308.22 36.2489C309.912 37.9839 310.759 40.798 310.759 44.6913V88.6171H329.104V44.2469C329.019 35.7411 327.199 29.3511 323.645 25.077C320.09 20.8029 314.673 18.6659 307.395 18.6659C299.143 18.6659 292.562 21.7339 287.653 27.87ZM350.051 80.619C356.398 86.7974 364.608 89.8866 374.68 89.8866C380.393 89.8866 385.598 88.8075 390.295 86.6493C394.992 84.4488 398.716 81.4019 401.467 77.5087L392.453 67.4159C388.475 72.5363 382.953 75.0965 375.886 75.0965C371.315 75.0965 367.528 73.7424 364.523 71.034C361.561 68.3257 359.784 64.7287 359.191 60.243H402.927V52.7528C402.927 41.8771 400.218 33.4771 394.802 27.5526C389.427 21.6281 382.043 18.6659 372.648 18.6659C366.385 18.6659 360.799 20.147 355.891 23.1092C351.024 26.0292 347.258 30.2186 344.592 35.6776C341.926 41.0943 340.593 47.2515 340.593 54.1493V55.9266C340.593 66.2098 343.745 74.4406 350.051 80.619ZM363.698 37.201C365.983 34.7466 368.946 33.5194 372.585 33.5194C376.478 33.5194 379.483 34.6408 381.599 36.8837C383.715 39.0842 384.815 42.2157 384.899 46.2782V47.7381H359.382C360.017 43.1678 361.455 39.6555 363.698 37.201Z" fill="#fff"/>
</svg>