<svg xmlns="http://www.w3.org/2000/svg" viewBox="0 0 200.4 66.5"><style>.st0,.st1{fill:#ccd8e7}</style><path id="arrow_1_" class="st0" d="M122.7 47.6c-13 5.5-27.2 8.2-40.1 8.2-19.1 0-37.6-5.2-52.6-13.9-1.3-.8-2.3.6-1.2 1.6 13.9 12.5 32.2 20 52.5 20 14.5 0 31.4-4.6 43-13.1 2-1.6.4-3.7-1.6-2.8z"/><path id="arrow" class="st0" d="M115.4 42.7c-1 .7-.9 1.7.3 1.6 3.7-.4 12.1-1.4 13.6.5s-1.7 9.8-3.1 13.3c-.4 1.1.5 1.5 1.4.7 6.2-5.2 7.9-16.2 6.6-17.7-1.2-1.7-12.2-3.1-18.8 1.6z"/><path id="z" class="st1" d="M138.2 29.5c-3.6-2-7.7-2.6-11.6-2.5l10.6-15.1c1-1.4 1.5-2.2 1.5-2.9V5.1c0-.7-.5-1.1-1.2-1.1h-20.4c-.6 0-1.1.5-1.1 1.1v4.5c0 .7.5 1.1 1.2 1.1h10.6l-12.2 17.5c-.7 1.1-.7 2.4-.7 3.1v4.6c0 .7.7 1.4 1.4 1 6.9-3.7 15.2-3.3 21.5 0 .8.4 1.5-.4 1.5-1V31c-.1-.4-.3-1.1-1.1-1.5z"/><path id="m" class="st1" d="M35.5 38.1h6.2c.7 0 1.2-.5 1.2-1.1V20.1c0-3.7-.2-8.8 4.3-8.8 4.4 0 3.8 5.2 3.8 8.8V37c0 .6.5 1.1 1.1 1.1h6.2c.7 0 1.2-.5 1.2-1.1V20.1c0-1.8-.1-4.5.6-6.1.6-1.6 2.2-2.6 3.7-2.6 1.8 0 3.2.6 3.6 2.7.3 1.3.2 4.6.2 6V37c0 .6.5 1.1 1.1 1.1h6.2c.7 0 1.2-.5 1.2-1.1V16.9c0-3.4.4-7.3-1.6-10-1.7-2.4-4.6-3.5-7.2-3.5-3.7 0-7.1 1.9-8.6 5.9-1.7-4-4.2-5.9-8-5.9s-6.6 1.9-8.2 5.9h-.1V5.1c0-.6-.5-1-1.1-1.1h-5.8c-.7 0-1.2.5-1.2 1.1V37c.1.6.6 1 1.2 1.1z"/><path id="o" class="st1" d="M156.2 3.4c-9 0-13.9 7.7-13.9 17.6 0 9.8 4.9 17.7 13.9 17.7 8.7 0 14.2-7.7 14.2-17.4-.1-10-5-17.9-14.2-17.9zm0 28.8c-4.9 0-4.8-8.3-4.8-12.2 0-3.9.3-10.1 4.9-10.1 2 0 3.4.9 4.1 3.1.8 2.5.9 5.8.9 8.4-.1 4.1-.3 10.8-5.1 10.8z"/><path id="n" class="st1" d="M191.6 3.4c-4.3 0-6.7 2.1-8.4 6.4h-.2V5c-.1-.5-.6-.9-1.1-.9h-5.7c-.6 0-1.1.5-1.2 1v31.8c0 .6.5 1.1 1.1 1.1h6.2c.7 0 1.2-.5 1.2-1.1V19.8c0-2.1.1-4.1 1-6 .7-1.5 2.1-2.5 3.6-2.5 4.3 0 3.9 5.1 3.9 8.6v17.3c.1.5.5 1 1.1 1h6.2c.6 0 1.1-.4 1.2-1v-20c0-3.1 0-7.4-1.6-9.9-1.9-2.9-4.6-3.9-7.3-3.9z"/><path id="a_1_" class="st1" d="M99.7 16.6c-3.6.4-8.3.7-11.6 2.2-3.9 1.7-6.6 5.1-6.6 10.1 0 6.4 4.1 9.7 9.3 9.7 4.4 0 6.8-1 10.2-4.5 1.1 1.6 1.5 2.4 3.6 4.1.5.2 1.1.2 1.5-.1 1.2-1.1 3.5-3.1 4.7-4.1.5-.4.4-1.1 0-1.6-1.1-1.6-2.3-2.8-2.3-5.7V17c0-4.1.3-7.8-2.7-10.7-2.4-2.3-6.3-3.1-9.3-3.1-5.9 0-12.5 2.2-13.9 9.5-.1.8.4 1.2.9 1.3l6 .6c.6 0 1-.6 1.1-1.1.5-2.5 2.6-3.7 5-3.7 1.3 0 2.7.5 3.5 1.6.9 1.3.8 3 .8 4.5l-.2.7zm-1.1 12.9c-1 1.7-2.6 2.8-4.3 2.8-2.4 0-3.8-1.8-3.8-4.5 0-5.3 4.7-6.2 9.2-6.2v1.3c0 2.4.1 4.4-1.1 6.6z"/><path id="a" class="st1" d="M29.5 32.2c-1.1-1.6-2.3-2.8-2.3-5.7v-9.7c0-4.1.3-7.8-2.7-10.7C22.1 3.8 18.2 3 15.2 3 9.3 3 2.7 5.2 1.3 12.5c-.1.8.4 1.2.9 1.3l6 .6c.6 0 1-.6 1.1-1.1.5-2.5 2.6-3.7 5-3.7 1.3 0 2.7.5 3.5 1.6.9 1.3.7 3 .7 4.5v.8c-3.6.4-8.3.7-11.6 2.2C3 20.4.2 23.8.2 28.9c0 6.4 4.1 9.7 9.3 9.7 4.4 0 6.8-1 10.2-4.5 1.1 1.6 1.5 2.4 3.6 4.1.5.2 1.1.2 1.5-.1C26 37 28.3 35 29.5 34c.5-.5.4-1.2 0-1.8zm-12.2-2.7c-1 1.7-2.5 2.8-4.3 2.8-2.4 0-3.8-1.8-3.8-4.5 0-5.3 4.7-6.2 9.2-6.2v1.3c.1 2.4.2 4.4-1.1 6.6z"/></svg>