<svg xmlns="http://www.w3.org/2000/svg" viewBox="0 0 200.4 66.5"><path d="M64.1 47.8l2.5-5.8c2.7 2 6.3 3.1 9.9 3.1 2.6 0 4.3-1 4.3-2.5 0-4.3-15.7-.9-15.8-11.7 0-5.5 4.8-9.6 11.7-9.6 4.1 0 8.2 1 11.1 3.3l-2.3 5.9c-2.7-1.7-6-2.9-9.1-2.9-2.1 0-3.6 1-3.6 2.3 0 4.2 15.8 1.9 16 12.2 0 5.6-4.7 9.5-11.5 9.5-5.2-.1-9.7-1.3-13.2-3.8m96.1-7.9c-1.3 2.2-3.6 3.7-6.3 3.7-4 0-7.2-3.2-7.2-7.2s3.2-7.2 7.2-7.2c2.7 0 5 1.5 6.3 3.7l6.9-3.8c-2.6-4.6-7.5-7.8-13.2-7.8-8.4 0-15.1 6.8-15.1 15.1s6.8 15.1 15.1 15.1c5.7 0 10.6-3.1 13.2-7.8l-6.9-3.8zM92.1 8.7h8.6V51h-8.6zm78.3 0v42.2h8.7V38.3l10.2 12.6h11.1l-13-15 12-14.1h-10.5l-9.8 11.7V8.7zm-44 31.3c-1.3 2.1-3.8 3.6-6.7 3.6-4 0-7.2-3.2-7.2-7.2s3.2-7.2 7.2-7.2c2.9 0 5.5 1.6 6.7 3.7V40zm0-18.2v3.4c-1.4-2.4-4.9-4-8.6-4-7.6 0-13.6 6.7-13.6 15.1s6 15.2 13.6 15.2c3.7 0 7.2-1.7 8.6-4v3.4h8.6V21.8h-8.6zM10.7 40c0 2.9-2.4 5.3-5.3 5.3S0 42.9 0 40s2.4-5.3 5.3-5.3h5.3V40zm2.7 0c0-2.9 2.4-5.3 5.3-5.3S24 37 24 40v13.3c0 2.9-2.4 5.3-5.3 5.3s-5.3-2.4-5.3-5.3V40zm5.3-21.4c-2.9 0-5.3-2.4-5.3-5.3S15.8 8 18.7 8s5.3 2.4 5.3 5.3v5.3h-5.3zm0 2.7c2.9 0 5.3 2.4 5.3 5.3s-2.4 5.3-5.3 5.3H5.3c-2.9 0-5.3-2.4-5.3-5.3s2.4-5.3 5.3-5.3h13.4zM40 26.6c0-2.9 2.4-5.3 5.3-5.3s5.3 2.4 5.3 5.3-2.4 5.3-5.3 5.3H40v-5.3zm-2.6 0c0 2.9-2.4 5.3-5.3 5.3s-5.3-2.4-5.3-5.3V13.2c0-2.9 2.4-5.3 5.3-5.3s5.3 2.4 5.3 5.3v13.4zm-5.3 21.3c2.9 0 5.3 2.4 5.3 5.3s-2.4 5.3-5.3 5.3-5.3-2.4-5.3-5.3v-5.3h5.3zm0-2.6c-2.9 0-5.3-2.4-5.3-5.3s2.4-5.3 5.3-5.3h13.4c2.9 0 5.3 2.4 5.3 5.3s-2.4 5.3-5.3 5.3H32.1z" fill="#ccd8e7"/></svg>